<?xml version="1.0" encoding="UTF-8"?><svg xmlns="http://www.w3.org/2000/svg" viewBox="0 0 8.69 7.2"><g id="a"/><g id="b"><g id="c"><path d="M5.26,1.09c-.78,.32-2.33,.99-4.67,2.01C.22,3.25,.02,3.4,0,3.54c-.03,.24,.28,.34,.69,.47l.17,.06c.41,.13,.96,.29,1.24,.29,.26,0,.55-.1,.87-.32,2.18-1.47,3.3-2.21,3.37-2.23,.05-.01,.12-.03,.17,.02,.05,.04,.04,.12,.04,.14-.03,.13-1.23,1.24-1.85,1.82-.19,.18-.33,.31-.36,.34-.06,.06-.12,.13-.19,.19-.38,.37-.66,.64,.01,1.09,.33,.22,.59,.39,.85,.57,.28,.19,.57,.39,.94,.63,.09,.06,.18,.12,.27,.19,.33,.24,.63,.45,1,.41,.21-.02,.44-.22,.55-.82,.27-1.42,.79-4.49,.91-5.75,0-.11,0-.21-.01-.32,0-.08-.05-.16-.11-.22-.09-.06-.2-.1-.31-.09-.3,0-.76,.17-2.98,1.09Z"/></g></g></svg>